<svg width="46" height="41" viewBox="0 0 46 41" fill="none" xmlns="http://www.w3.org/2000/svg">
<path d="M2.06897 38.069H43.069M22.569 8.4219V2.06896M22.569 2.06896H15.444M22.569 2.06896H29.694M4.22557 25.9454C5.18292 25.3186 6.15462 24.4101 6.29607 23.2497C6.79633 19.156 8.72548 15.3917 11.7215 12.6629C14.7176 9.93407 18.5747 8.42842 22.569 8.42842C26.5633 8.42842 30.4203 9.93407 33.4164 12.6629C36.4125 15.3917 38.3416 19.156 38.8419 23.2497C38.9833 24.4101 39.955 25.3186 40.9124 25.9454C41.759 26.5003 42.374 27.4108 42.5503 28.4972L43.069 30.6572H2.06897L2.58762 28.4972C2.67164 27.9766 2.86116 27.4801 3.14378 27.0404C3.4264 26.6006 3.79369 26.2275 4.22557 25.9454Z" stroke="#383838" stroke-width="4.13793" stroke-linecap="round" stroke-linejoin="round"/>
</svg>
