<svg width="44" height="53" viewBox="0 0 44 53" fill="none" xmlns="http://www.w3.org/2000/svg">
<path d="M41.1287 39.8525V19.0345C41.1287 14.1266 41.1287 11.6727 39.6935 10.1504C38.2583 8.62549 35.9512 8.62549 31.332 8.62549H1.94189V39.8525C1.94189 44.7577 1.94189 47.2116 3.37711 48.7366C4.81233 50.2615 7.11945 50.2615 11.7386 50.2615H31.332C35.9512 50.2615 38.2583 50.2615 39.6935 48.7366C41.1287 47.2116 41.1287 44.7577 41.1287 39.8525Z" stroke="#383838" stroke-width="3.88306" stroke-linecap="round" stroke-linejoin="round"/>
<path d="M21.5353 20.871C23.484 20.871 25.3529 21.6451 26.7308 23.0231C28.1087 24.401 28.8828 26.2699 28.8828 28.2185M21.5353 20.871C19.5866 20.871 17.7177 21.6451 16.3398 23.0231C14.9619 24.401 14.1878 26.2699 14.1878 28.2185M21.5353 20.871V18.4218M28.8828 28.2185H14.1878M28.8828 28.2185H31.332M14.1878 28.2185H11.7386M11.7386 38.0153H31.332M1.94189 8.62514C1.94189 8.62514 15.9904 5.18895 20.0291 3.49657C24.0677 1.80419 24.909 1.46622 27.695 2.61487C28.8339 3.08445 29.5498 3.40588 30.3156 4.37092C31.3773 5.70899 30.7197 4.33916 31.332 8.62514" stroke="#383838" stroke-width="3.88306" stroke-linecap="round" stroke-linejoin="round"/>
</svg>
