<svg width="54" height="43" viewBox="0 0 54 43" fill="none" xmlns="http://www.w3.org/2000/svg">
<path d="M23.7469 3.29046C24.3188 2.18421 23.8875 0.824831 22.7906 0.252956C21.6938 -0.318919 20.325 0.112331 19.7531 1.20921L11.025 12.9998H3C1.34062 12.9998 0 14.3405 0 15.9998C0 17.6592 1.34062 18.9998 3 18.9998L7.86563 38.453C8.53125 41.1248 10.9313 42.9998 13.6875 42.9998H40.3125C43.0687 42.9998 45.4688 41.1248 46.1344 38.453L51 18.9998C52.6594 18.9998 54 17.6592 54 15.9998C54 14.3405 52.6594 12.9998 51 12.9998H42.975L34.2469 1.20921C33.675 0.112331 32.3156 -0.318919 31.2094 0.252956C30.1031 0.824831 29.6813 2.18421 30.2531 3.29046L37.9031 12.9998H16.0969L23.7469 3.29046ZM18 23.4998V32.4998C18 33.3248 17.325 33.9998 16.5 33.9998C15.675 33.9998 15 33.3248 15 32.4998V23.4998C15 22.6748 15.675 21.9998 16.5 21.9998C17.325 21.9998 18 22.6748 18 23.4998ZM27 21.9998C27.825 21.9998 28.5 22.6748 28.5 23.4998V32.4998C28.5 33.3248 27.825 33.9998 27 33.9998C26.175 33.9998 25.5 33.3248 25.5 32.4998V23.4998C25.5 22.6748 26.175 21.9998 27 21.9998ZM39 23.4998V32.4998C39 33.3248 38.325 33.9998 37.5 33.9998C36.675 33.9998 36 33.3248 36 32.4998V23.4998C36 22.6748 36.675 21.9998 37.5 21.9998C38.325 21.9998 39 22.6748 39 23.4998Z" fill="#777777"/>
</svg>
