<svg width="39" height="45" viewBox="0 0 39 45" fill="none" xmlns="http://www.w3.org/2000/svg">
<path fill-rule="evenodd" clip-rule="evenodd" d="M10.3834 9.64286V11.25H6.35788C4.413 11.25 2.78416 12.8014 2.57954 14.8479L0.0208114 40.5621C-0.03484 41.1222 0.0214244 41.6883 0.185955 42.2239C0.350486 42.7594 0.619608 43.2524 0.975867 43.6708C1.33213 44.0893 1.76756 44.4238 2.25394 44.6528C2.74032 44.8818 3.26677 45.0001 3.79915 45H35.2009C35.7332 45.0001 36.2597 44.8818 36.7461 44.6528C37.2324 44.4238 37.6679 44.0893 38.0241 43.6708C38.3804 43.2524 38.6495 42.7594 38.814 42.2239C38.9786 41.6883 39.0348 41.1222 38.9792 40.5621L36.4205 14.8479C36.3223 13.8603 35.8819 12.9462 35.1842 12.2818C34.4865 11.6174 33.5809 11.2499 32.6421 11.25H28.6166V9.64286C28.6166 7.08541 27.6561 4.63271 25.9464 2.82433C24.2367 1.01594 21.9179 0 19.5 0C17.0821 0 14.7633 1.01594 13.0536 2.82433C11.3439 4.63271 10.3834 7.08541 10.3834 9.64286ZM19.5 3.21429C17.8881 3.21429 16.3422 3.89158 15.2024 5.09717C14.0626 6.30276 13.4222 7.93789 13.4222 9.64286V11.25H25.5777V9.64286C25.5777 7.93789 24.9374 6.30276 23.7976 5.09717C22.6578 3.89158 21.1119 3.21429 19.5 3.21429ZM13.4222 20.8929C13.4222 22.5978 14.0626 24.233 15.2024 25.4385C16.3422 26.6441 17.8881 27.3214 19.5 27.3214C21.1119 27.3214 22.6578 26.6441 23.7976 25.4385C24.9374 24.233 25.5777 22.5978 25.5777 20.8929V19.2857C25.5777 18.8595 25.7378 18.4507 26.0228 18.1493C26.3077 17.8479 26.6942 17.6786 27.0972 17.6786C27.5002 17.6786 27.8866 17.8479 28.1716 18.1493C28.4565 18.4507 28.6166 18.8595 28.6166 19.2857V20.8929C28.6166 23.4503 27.6561 25.903 25.9464 27.7114C24.2367 29.5198 21.9179 30.5357 19.5 30.5357C17.0821 30.5357 14.7633 29.5198 13.0536 27.7114C11.3439 25.903 10.3834 23.4503 10.3834 20.8929V19.2857C10.3834 18.8595 10.5435 18.4507 10.8284 18.1493C11.1134 17.8479 11.4998 17.6786 11.9028 17.6786C12.3058 17.6786 12.6923 17.8479 12.9772 18.1493C13.2622 18.4507 13.4222 18.8595 13.4222 19.2857V20.8929Z" fill="#777777"/>
</svg>
