<svg width="43" height="40" viewBox="0 0 43 40" fill="none" xmlns="http://www.w3.org/2000/svg">
<path d="M1.8 0C0.8025 0 0 0.8025 0 1.8C0 2.7975 0.8025 3.6 1.8 3.6H5.1975C5.49 3.6 5.7375 3.81 5.79 4.095L9.6975 25.5675C10.1625 28.1325 12.3975 30 15.0075 30H34.2C35.1975 30 36 29.1975 36 28.2C36 27.2025 35.1975 26.4 34.2 26.4H15.0075C14.1375 26.4 13.395 25.7775 13.2375 24.9225L12.855 22.8H35.625C37.935 22.8 39.915 21.1575 40.3425 18.885L42.6675 6.4425C42.945 4.965 41.8125 3.6 40.305 3.6H9.3525L9.3225 3.45C8.9625 1.455 7.2225 0 5.19 0H1.8ZM15.6 39.6C17.5875 39.6 19.2 37.9875 19.2 36C19.2 34.0125 17.5875 32.4 15.6 32.4C13.6125 32.4 12 34.0125 12 36C12 37.9875 13.6125 39.6 15.6 39.6ZM32.4 39.6C34.3875 39.6 36 37.9875 36 36C36 34.0125 34.3875 32.4 32.4 32.4C30.4125 32.4 28.8 34.0125 28.8 36C28.8 37.9875 30.4125 39.6 32.4 39.6Z" fill="#777777"/>
</svg>
