<svg width="19" height="19" viewBox="0 0 19 19" fill="none" xmlns="http://www.w3.org/2000/svg">
<path fill-rule="evenodd" clip-rule="evenodd" d="M9.5 0C8.96535 0 8.47312 0.132558 7.93493 0.355256C7.41442 0.570884 6.80995 0.888139 6.05791 1.28316L4.23037 2.242C3.30688 2.72628 2.56898 3.11423 1.99721 3.49512C1.40688 3.89014 0.950884 4.30549 0.619488 4.86842C0.288977 5.42958 0.140512 6.03758 0.0689302 6.76135C-4.47035e-08 7.46391 0 8.3273 0 9.41428V9.58572C0 10.6727 -4.47035e-08 11.5361 0.0689302 12.2387C0.140512 12.9633 0.28986 13.5704 0.619488 14.1316C0.950884 14.6945 1.406 15.1099 1.99809 15.5049C2.56809 15.8858 3.30688 16.2737 4.23037 16.758L6.05791 17.7168C6.80995 18.1119 7.41442 18.4291 7.93493 18.6447C8.474 18.8674 8.87325 19 9.5 19C10.1267 19 10.5269 18.8674 11.0651 18.6447C11.5856 18.4291 12.19 18.1119 12.9421 17.7168L14.7696 16.7589C15.6931 16.2737 16.431 15.8858 17.0019 15.5049C17.594 15.1099 18.0491 14.6945 18.3805 14.1316C18.711 13.5704 18.8595 12.9624 18.9311 12.2387C19 11.5361 19 10.6727 19 9.5866V9.4134C19 8.3273 19 7.46391 18.9311 6.76135C18.8595 6.0367 18.7101 5.42958 18.3805 4.86842C18.0491 4.30549 17.594 3.89014 17.0019 3.49512C16.4319 3.11423 15.6931 2.72628 14.7696 2.242L12.9421 1.28316C12.19 0.888139 11.5856 0.570884 11.0651 0.355256C10.526 0.132558 10.0347 0 9.5 0ZM6.64558 2.47088C7.43209 2.05819 7.98353 1.77009 8.4413 1.58098C8.8867 1.39628 9.20042 1.32558 9.5 1.32558C9.80046 1.32558 10.1133 1.39628 10.5587 1.58098C11.0165 1.77009 11.567 2.05819 12.3535 2.47088L14.121 3.39879C15.0842 3.9034 15.7603 4.25953 16.2667 4.59712C16.5159 4.76414 16.7112 4.91879 16.8702 5.07433L13.9266 6.54572L6.41493 2.59195L6.64558 2.47088ZM5.03279 3.31749L4.87902 3.39879C3.91577 3.9034 3.23972 4.25953 2.73423 4.59712C2.51871 4.73717 2.31665 4.89692 2.13065 5.07433L9.5 8.75944L12.4667 7.27479L5.21484 3.45888C5.14683 3.42203 5.08533 3.37426 5.03279 3.31749ZM1.49172 6.23642C1.44753 6.42554 1.41307 6.64028 1.38833 6.89037C1.32647 7.52135 1.32558 8.31935 1.32558 9.44786V9.55126C1.32558 10.6807 1.32558 11.4787 1.38833 12.1087C1.4493 12.7247 1.56507 13.1233 1.76214 13.4591C1.95833 13.7922 2.242 14.0741 2.73423 14.4029C3.23972 14.7405 3.91577 15.0966 4.87902 15.6012L6.64647 16.5291C7.43298 16.9418 7.98353 17.2299 8.4413 17.419C8.58505 17.4785 8.71702 17.5271 8.83721 17.5648V9.90916L1.49172 6.23642ZM10.1628 17.564C10.283 17.5268 10.4149 17.4785 10.5587 17.419C11.0165 17.2299 11.567 16.9418 12.3535 16.5291L14.121 15.6012C15.0842 15.0957 15.7603 14.7405 16.2667 14.4029C16.758 14.0741 17.0417 13.7922 17.2387 13.4591C17.4358 13.1233 17.5507 12.7256 17.6117 12.1087C17.6735 11.4787 17.6744 10.6807 17.6744 9.55214V9.44874C17.6744 8.31935 17.6744 7.52135 17.6117 6.89126C17.5909 6.67133 17.5563 6.45292 17.5083 6.2373L14.5814 7.69986V9.38372C14.5814 9.5595 14.5116 9.72809 14.3873 9.85238C14.263 9.97668 14.0944 10.0465 13.9186 10.0465C13.7428 10.0465 13.5742 9.97668 13.4499 9.85238C13.3256 9.72809 13.2558 9.5595 13.2558 9.38372V8.36353L10.1628 9.91005V17.564Z" fill="#777777"/>
</svg>
