<svg width="24" height="23" viewBox="0 0 24 23" fill="none" xmlns="http://www.w3.org/2000/svg">
<path d="M11.5859 18.8252L7.27415 21.41C6.93631 21.613 6.54961 21.7202 6.15549 21.7202C5.76137 21.7202 5.37467 21.613 5.03683 21.41L1.77859 19.4551C1.45794 19.2624 1.19247 18.9903 1.0079 18.6649C0.82333 18.3395 0.725917 17.972 0.725098 17.5979V14.079C0.725917 13.7049 0.82333 13.3374 1.0079 13.012C1.19247 12.6867 1.45794 12.4145 1.77859 12.2218L6.15549 9.59351L11.5859 12.8517M11.5859 18.8252V12.8517M11.5859 18.8252L15.8976 21.41C16.2355 21.613 16.6221 21.7202 17.0163 21.7202C17.4104 21.7202 17.7971 21.613 18.1349 21.41L21.3932 19.4551C21.7138 19.2624 21.9793 18.9903 22.1639 18.6649C22.3484 18.3395 22.4458 17.972 22.4467 17.5979V14.079C22.4458 13.7049 22.3484 13.3374 22.1639 13.012C21.9793 12.6867 21.7138 12.4145 21.3932 12.2218L17.0163 9.59351L11.5859 12.8517M11.5859 12.8517L6.15549 16.11M11.5859 12.8517L17.0163 16.11M6.15549 16.11L1.00748 13.0147M6.15549 16.11V21.725M17.0163 16.11L22.1643 13.0147M17.0163 16.11V21.725" stroke="#777777" stroke-width="1.45" stroke-linecap="round" stroke-linejoin="round"/>
<path d="M11.5862 12.8518L6.15576 9.5936V4.84744C6.15658 4.47336 6.25399 4.10584 6.43856 3.78046C6.62313 3.45509 6.8886 3.18289 7.20926 2.99024L10.4675 1.0353C10.8053 0.832329 11.192 0.725098 11.5862 0.725098C11.9803 0.725098 12.367 0.832329 12.7048 1.0353L15.9631 2.99024C16.2837 3.18289 16.5492 3.45509 16.7337 3.78046C16.9183 4.10584 17.0157 4.47336 17.0165 4.84744V9.5936L11.5862 12.8518ZM11.5862 12.8518V6.87841M11.5862 6.87841L6.43814 3.78308M11.5862 6.87841L16.7342 3.78308" stroke="#777777" stroke-width="1.45" stroke-linecap="round" stroke-linejoin="round"/>
</svg>
