<svg width="20" height="20" viewBox="0 0 20 20" fill="none" xmlns="http://www.w3.org/2000/svg">
<path d="M16.9697 17.8788H2.12121V6.21212H16.9697M13.7879 0V2.12121H5.30303V0H3.18182V2.12121H2.12121C0.943939 2.12121 0 3.06515 0 4.24242V17.8788C0 18.4414 0.223484 18.9809 0.621288 19.3787C1.01909 19.7765 1.55863 20 2.12121 20H16.9697C17.5323 20 18.0718 19.7765 18.4696 19.3787C18.8674 18.9809 19.0909 18.4414 19.0909 17.8788V4.24242C19.0909 3.67984 18.8674 3.14031 18.4696 2.7425C18.0718 2.3447 17.5323 2.12121 16.9697 2.12121H15.9091V0M9.54545 8.33333H4.24242V13.6364H9.54545V8.33333Z" fill="#777777"/>
</svg>
