<svg width="17" height="17" viewBox="0 0 17 17" fill="none" xmlns="http://www.w3.org/2000/svg">
<path d="M0.625 7.3707V2.27593C0.625 1.83808 0.798937 1.41816 1.10855 1.10855C1.41816 0.798937 1.83808 0.625 2.27593 0.625H7.3707C7.80852 0.625094 8.22837 0.799092 8.53791 1.10872L15.1416 7.71244C15.4511 8.02204 15.625 8.44188 15.625 8.87965C15.625 9.31742 15.4511 9.73726 15.1416 10.0469L10.0469 15.1416C9.73726 15.4511 9.31742 15.625 8.87965 15.625C8.44188 15.625 8.02204 15.4511 7.71244 15.1416L1.10872 8.53791C0.799092 8.22837 0.625094 7.80852 0.625 7.3707Z" stroke="#777777" stroke-width="1.25" stroke-linecap="round" stroke-linejoin="round"/>
<circle cx="4.13353" cy="4.13255" r="1.44456" stroke="#777777" stroke-width="1.25"/>
</svg>
