<svg width="21" height="21" viewBox="0 0 21 21" fill="none" xmlns="http://www.w3.org/2000/svg">
<path d="M7 8.75V6.125C7 4.19125 8.56625 2.625 10.5 2.625C12.4338 2.625 14 4.19125 14 6.125V8.75M10.5 13.125C10.7321 13.125 10.9546 13.0328 11.1187 12.8687C11.2828 12.7046 11.375 12.4821 11.375 12.25C11.375 12.0179 11.2828 11.7954 11.1187 11.6313C10.9546 11.4672 10.7321 11.375 10.5 11.375C10.2679 11.375 10.0454 11.4672 9.88128 11.6313C9.71719 11.7954 9.625 12.0179 9.625 12.25C9.625 12.4821 9.71719 12.7046 9.88128 12.8687C10.0454 13.0328 10.2679 13.125 10.5 13.125ZM10.5 13.125V15.75M5.775 8.75H15.225C15.995 8.75 16.625 9.38 16.625 10.15V16.275C16.625 17.43 15.68 18.375 14.525 18.375H6.475C5.32 18.375 4.375 17.43 4.375 16.275V10.15C4.375 9.38 5.005 8.75 5.775 8.75Z" stroke="#777777" stroke-width="1.45" stroke-miterlimit="10" stroke-linecap="round" stroke-linejoin="round"/>
</svg>
