<svg width="18" height="18" viewBox="0 0 18 18" fill="none" xmlns="http://www.w3.org/2000/svg">
<path d="M14.3984 16.8005H1.19986V3.60196H9.13096L10.3308 2.4021H1.19986C0.88164 2.4021 0.57645 2.52851 0.351432 2.75353C0.126414 2.97855 0 3.28374 0 3.60196V16.8005C0 17.1187 0.126414 17.4239 0.351432 17.6489C0.57645 17.8739 0.88164 18.0003 1.19986 18.0003H14.3984C14.7166 18.0003 15.0218 17.8739 15.2468 17.6489C15.4718 17.4239 15.5982 17.1187 15.5982 16.8005V7.80148L14.3984 9.00135V16.8005Z" fill="#777777"/>
<path d="M17.7159 2.30561L15.6941 0.283839C15.6044 0.193867 15.4978 0.122483 15.3804 0.0737772C15.2631 0.0250712 15.1373 0 15.0102 0C14.8831 0 14.7573 0.0250712 14.64 0.0737772C14.5226 0.122483 14.416 0.193867 14.3263 0.283839L6.10121 8.5569L5.43529 11.4426C5.40692 11.5824 5.4099 11.7269 5.44402 11.8655C5.47814 12.0041 5.54255 12.1334 5.63262 12.2441C5.72269 12.3548 5.83617 12.4442 5.96492 12.5058C6.09366 12.5674 6.23446 12.5997 6.37718 12.6004C6.45095 12.6085 6.52538 12.6085 6.59916 12.6004L9.50882 11.9585L17.7159 3.67345C17.8059 3.58373 17.8772 3.47713 17.926 3.35977C17.9747 3.24241 17.9997 3.1166 17.9997 2.98953C17.9997 2.86247 17.9747 2.73665 17.926 2.61929C17.8772 2.50193 17.8059 2.39533 17.7159 2.30561ZM8.8849 10.8486L6.68915 11.3346L7.19909 9.15683L13.3904 2.92354L15.0822 4.61535L8.8849 10.8486ZM15.7601 3.93742L14.0683 2.24562L14.9982 1.29772L16.702 3.00153L15.7601 3.93742Z" fill="#777777"/>
</svg>
