<svg width="18" height="15" viewBox="0 0 18 15" fill="none" xmlns="http://www.w3.org/2000/svg">
<path d="M0.0001332 12.8865V1.43193H4.08305C4.97048 1.43193 5.7069 1.58481 6.2923 1.89056C6.88144 2.19631 7.32142 2.61952 7.61226 3.16018C7.9031 3.69711 8.04852 4.31794 8.04852 5.02266C8.04852 5.72365 7.90123 6.34075 7.60667 6.87396C7.31583 7.40343 6.87584 7.81545 6.28671 8.11002C5.70131 8.40459 4.96489 8.55187 4.07746 8.55187H0.984508V7.06412H3.92085C4.48016 7.06412 4.93506 6.98395 5.28556 6.82362C5.63978 6.66329 5.89893 6.43024 6.06299 6.12449C6.22705 5.81874 6.30908 5.45146 6.30908 5.02266C6.30908 4.59013 6.22519 4.2154 6.0574 3.89846C5.89333 3.58152 5.63419 3.33916 5.27996 3.17136C4.92947 2.99984 4.46897 2.91408 3.89848 2.91408H1.72838V12.8865H0.0001332ZM5.6547 7.71851L8.48478 12.8865H6.51602L3.74188 7.71851H5.6547ZM13.0297 14.3183V0.00011012H13.947V14.3183H13.0297ZM15.8989 4.44098C15.8393 3.91151 15.5932 3.50135 15.1606 3.21052C14.7281 2.91595 14.1837 2.76867 13.5275 2.76867C13.0577 2.76867 12.6512 2.84324 12.3082 2.99239C11.9652 3.13781 11.6986 3.33916 11.5084 3.59644C11.322 3.84999 11.2287 4.13896 11.2287 4.46336C11.2287 4.73555 11.2921 4.97046 11.4189 5.16808C11.5494 5.3657 11.7191 5.53163 11.9279 5.66586C12.1404 5.79636 12.3679 5.90636 12.6102 5.99585C12.8526 6.08161 13.0856 6.15245 13.3093 6.20839L14.428 6.49922C14.7934 6.58871 15.1681 6.70989 15.5522 6.86277C15.9362 7.01565 16.2923 7.217 16.6204 7.46682C16.9486 7.71664 17.2133 8.02612 17.4146 8.39526C17.6197 8.7644 17.7223 9.20625 17.7223 9.72081C17.7223 10.3696 17.5545 10.9457 17.2189 11.4491C16.887 11.9524 16.4042 12.3495 15.7703 12.6404C15.1401 12.9312 14.3776 13.0766 13.4827 13.0766C12.6251 13.0766 11.8831 12.9405 11.2567 12.6683C10.6303 12.3962 10.14 12.0102 9.78573 11.5106C9.43151 11.0072 9.23575 10.4106 9.19846 9.72081H10.9323C10.9659 10.1347 11.1001 10.4796 11.335 10.7555C11.5736 11.0277 11.8775 11.2309 12.2467 11.3652C12.6195 11.4957 13.0278 11.5609 13.4715 11.5609C13.96 11.5609 14.3944 11.4845 14.7747 11.3316C15.1588 11.175 15.4608 10.9587 15.6808 10.6828C15.9008 10.4032 16.0108 10.0769 16.0108 9.70403C16.0108 9.36472 15.9138 9.08694 15.7199 8.87067C15.5298 8.65441 15.2706 8.47543 14.9425 8.33374C14.6181 8.19205 14.2508 8.06714 13.8407 7.95901L12.4872 7.58987C11.5699 7.34004 10.8428 6.97277 10.3059 6.48804C9.77268 6.00331 9.50608 5.36197 9.50608 4.56403C9.50608 3.90405 9.68506 3.32797 10.043 2.83578C10.401 2.34359 10.8857 1.9614 11.4972 1.68921C12.1087 1.41329 12.7985 1.27532 13.5666 1.27532C14.3422 1.27532 15.0264 1.41142 15.6193 1.68362C16.2159 1.95581 16.6857 2.33054 17.0287 2.80782C17.3718 3.28136 17.5507 3.82575 17.5657 4.44098H15.8989Z" fill="#777777"/>
</svg>
