<svg width="18" height="18" viewBox="0 0 18 18" fill="none" xmlns="http://www.w3.org/2000/svg">
<path fill-rule="evenodd" clip-rule="evenodd" d="M7.36364 0C3.29681 0 0 3.29681 0 7.36364C0 11.4305 3.29681 14.7273 7.36364 14.7273C9.10229 14.7273 10.7002 14.1247 11.9599 13.117L16.6033 17.7604C16.9228 18.0799 17.4408 18.0799 17.7604 17.7604C18.0799 17.4408 18.0799 16.9228 17.7604 16.6033L13.117 11.9599C14.1247 10.7002 14.7273 9.10229 14.7273 7.36364C14.7273 3.29681 11.4305 0 7.36364 0ZM1.63636 7.36364C1.63636 4.20055 4.20055 1.63636 7.36364 1.63636C10.5267 1.63636 13.0909 4.20055 13.0909 7.36364C13.0909 10.5267 10.5267 13.0909 7.36364 13.0909C4.20055 13.0909 1.63636 10.5267 1.63636 7.36364Z" fill="white"/>
</svg>
