<svg width="21" height="21" viewBox="0 0 21 21" fill="none" xmlns="http://www.w3.org/2000/svg">
<mask id="path-1-inside-1_357_9153" fill="white">
<rect x="5.04004" width="10.92" height="9.24" rx="0.84"/>
</mask>
<rect x="5.04004" width="10.92" height="9.24" rx="0.84" stroke="#777777" stroke-width="2.9" mask="url(#path-1-inside-1_357_9153)"/>
<path d="M9.03027 1.05005H11.9703V2.08005C11.9703 2.31201 11.7822 2.50005 11.5503 2.50005H9.45027C9.21831 2.50005 9.03027 2.31201 9.03027 2.08005V1.05005Z" fill="#777777"/>
<mask id="path-3-inside-2_357_9153" fill="white">
<path d="M0 9.2399C0 8.77598 0.376081 8.3999 0.84 8.3999H10.08C10.5439 8.3999 10.92 8.77598 10.92 9.2399V17.6399H0.839999C0.37608 17.6399 0 17.2638 0 16.7999V9.2399Z"/>
</mask>
<path d="M0 9.2399C0 8.77598 0.376081 8.3999 0.84 8.3999H10.08C10.5439 8.3999 10.92 8.77598 10.92 9.2399V17.6399H0.839999C0.37608 17.6399 0 17.2638 0 16.7999V9.2399Z" stroke="#777777" stroke-width="2.9" mask="url(#path-3-inside-2_357_9153)"/>
<path d="M3.99023 9.44995H6.93023V10.48C6.93023 10.7119 6.74219 10.9 6.51023 10.9H4.41023C4.17827 10.9 3.99023 10.7119 3.99023 10.48V9.44995Z" fill="#777777"/>
<mask id="path-5-inside-3_357_9153" fill="white">
<path d="M9.87012 9.2399C9.87012 8.77598 10.2462 8.3999 10.7101 8.3999H19.9501C20.414 8.3999 20.7901 8.77598 20.7901 9.2399V16.7999C20.7901 17.2638 20.414 17.6399 19.9501 17.6399H9.87012V9.2399Z"/>
</mask>
<path d="M9.87012 9.2399C9.87012 8.77598 10.2462 8.3999 10.7101 8.3999H19.9501C20.414 8.3999 20.7901 8.77598 20.7901 9.2399V16.7999C20.7901 17.2638 20.414 17.6399 19.9501 17.6399H9.87012V9.2399Z" stroke="#777777" stroke-width="2.9" mask="url(#path-5-inside-3_357_9153)"/>
<path d="M13.8604 9.44995H16.8004V10.48C16.8004 10.7119 16.6123 10.9 16.3804 10.9H14.2804C14.0484 10.9 13.8604 10.7119 13.8604 10.48V9.44995Z" fill="#777777"/>
<mask id="path-7-inside-4_357_9153" fill="white">
<path d="M0 19.7399C0 19.276 0.376081 18.8999 0.84 18.8999H19.95C20.4139 18.8999 20.79 19.276 20.79 19.7399V20.3499H0V19.7399Z"/>
</mask>
<path d="M20.79 20.3499V21.7999H22.24V20.3499H20.79ZM0 20.3499H-1.45V21.7999H0V20.3499ZM0.84 18.8999V20.3499H19.95V18.8999V17.4499H0.84V18.8999ZM20.79 19.7399H19.34V20.3499H20.79H22.24V19.7399H20.79ZM20.79 20.3499V18.8999H0V20.3499V21.7999H20.79V20.3499ZM0 20.3499H1.45V19.7399H0H-1.45V20.3499H0ZM19.95 18.8999V20.3499C19.6131 20.3499 19.34 20.0768 19.34 19.7399H20.79H22.24C22.24 18.4752 21.2147 17.4499 19.95 17.4499V18.8999ZM0.84 18.8999V17.4499C-0.424731 17.4499 -1.45 18.4752 -1.45 19.7399H0H1.45C1.45 20.0768 1.17689 20.3499 0.84 20.3499V18.8999Z" fill="#777777" mask="url(#path-7-inside-4_357_9153)"/>
<path d="M0 19.95H2.94V20.58C2.94 20.8119 2.75196 21 2.52 21H0.42C0.18804 21 0 20.8119 0 20.58V19.95Z" fill="#777777"/>
<path d="M17.8501 19.95H20.7901V20.58C20.7901 20.8119 20.6021 21 20.3701 21H18.2701C18.0381 21 17.8501 20.8119 17.8501 20.58V19.95Z" fill="#777777"/>
</svg>
