<svg width="20" height="25" viewBox="0 0 20 25" fill="none" xmlns="http://www.w3.org/2000/svg">
<path d="M8.9375 13.8531V19.6202C8.9375 19.8159 9.00316 19.9794 9.13447 20.1108C9.26578 20.2421 9.42929 20.3077 9.625 20.3077C9.82071 20.3077 9.98422 20.2421 10.1155 20.1108C10.2468 19.9794 10.3125 19.8159 10.3125 19.6202V13.8531L12.7136 16.2542C12.7805 16.3211 12.8558 16.3713 12.9394 16.4048C13.0233 16.4382 13.1071 16.4537 13.1907 16.4512C13.2744 16.4484 13.3612 16.4303 13.4513 16.3969C13.5411 16.3634 13.6195 16.3132 13.6864 16.2463C13.8328 16.0946 13.9073 15.9324 13.9098 15.7596C13.9126 15.5868 13.8381 15.4246 13.6864 15.2732L10.4026 11.989C10.2825 11.8691 10.1599 11.7849 10.0348 11.7363C9.90963 11.688 9.77304 11.6638 9.625 11.6638C9.47696 11.6638 9.34037 11.688 9.21525 11.7363C9.09013 11.7849 8.96752 11.8691 8.84744 11.989L5.56359 15.2732C5.42953 15.407 5.35941 15.5648 5.35322 15.7465C5.34703 15.928 5.41979 16.0946 5.5715 16.2463C5.72298 16.3925 5.88512 16.467 6.05791 16.4697C6.2307 16.4723 6.39283 16.3978 6.54431 16.2463L8.9375 13.8531ZM2.22131 24.75C1.58835 24.75 1.0599 24.538 0.635938 24.1141C0.211979 23.6901 0 23.1616 0 22.5287V2.22131C0 1.58835 0.211979 1.0599 0.635938 0.635938C1.0599 0.211979 1.58835 0 2.22131 0H12.1395C12.4358 0 12.7237 0.0599264 13.003 0.179781C13.2824 0.299635 13.5216 0.459136 13.7208 0.658282L18.5917 5.52922C18.7909 5.72836 18.9504 5.96761 19.0702 6.24697C19.1901 6.52632 19.25 6.81416 19.25 7.11047V22.5287C19.25 23.1616 19.038 23.6901 18.6141 24.1141C18.1901 24.538 17.6616 24.75 17.0287 24.75H2.22131ZM12.375 5.76434V1.375H2.22131C2.00956 1.375 1.81557 1.46311 1.63934 1.63934C1.46311 1.81557 1.375 2.00956 1.375 2.22131V22.5287C1.375 22.7404 1.46311 22.9344 1.63934 23.1107C1.81557 23.2869 2.00956 23.375 2.22131 23.375H17.0287C17.2404 23.375 17.4344 23.2869 17.6107 23.1107C17.7869 22.9344 17.875 22.7404 17.875 22.5287V6.875H13.4857C13.1664 6.875 12.9015 6.7697 12.6909 6.55909C12.4803 6.34849 12.375 6.08357 12.375 5.76434Z" fill="#8E8E93"/>
</svg>
