<svg width="48" height="48" viewBox="0 0 48 48" fill="none" xmlns="http://www.w3.org/2000/svg">
<path d="M24.0001 36.0001C18.6321 36.0001 13.7321 36.7561 10.0001 38.0001M36.0001 26.0001C37.2493 25.9996 38.4811 25.7066 39.5967 25.1446C40.7124 24.5825 41.6809 23.767 42.4247 22.7633C43.1685 21.7597 43.6669 20.5958 43.88 19.3649C44.0931 18.134 44.015 16.8702 43.652 15.6749C43.2889 14.4796 42.6509 13.386 41.7892 12.4815C40.9275 11.5771 39.8659 10.8871 38.6895 10.4667C37.5132 10.0463 36.2547 9.90721 35.0149 10.0606C33.7752 10.214 32.5885 10.6556 31.5501 11.3501C31 9.78695 29.9782 8.43313 28.6258 7.47544C27.2735 6.51775 25.6572 6.00342 24.0001 6.00342C22.343 6.00342 20.7267 6.51775 19.3744 7.47544C18.022 8.43313 17.0003 9.78695 16.4501 11.3501C15.4117 10.6556 14.2251 10.214 12.9853 10.0606C11.7455 9.90721 10.4871 10.0463 9.3107 10.4667C8.13434 10.8871 7.07278 11.5771 6.21104 12.4815C5.34931 13.386 4.71135 14.4796 4.34827 15.6749C3.9852 16.8702 3.90709 18.134 4.12021 19.3649C4.33332 20.5958 4.83174 21.7597 5.57554 22.7633C6.31934 23.767 7.28785 24.5825 8.40349 25.1446C9.51913 25.7066 10.7509 25.9996 12.0001 26.0001V37.0001M42.0001 37.0001H30.0001M42.0001 37.0001C42.0001 38.4001 38.0121 41.0181 37.0001 42.0001M42.0001 37.0001C42.0001 35.6001 38.0121 32.9821 37.0001 32.0001" stroke="white" stroke-width="3" stroke-linecap="round" stroke-linejoin="round"/>
</svg>
