<svg width="22" height="22" viewBox="0 0 22 22" fill="none" xmlns="http://www.w3.org/2000/svg">
<path d="M0.90918 9.90339V3.11036C0.90918 2.52655 1.1411 1.96666 1.55391 1.55385C1.96672 1.14103 2.52661 0.909119 3.11042 0.909119H9.90345C10.4872 0.909243 11.047 1.14124 11.4597 1.55408L20.2647 10.359C20.6774 10.7718 20.9092 11.3316 20.9092 11.9153C20.9092 12.499 20.6774 13.0588 20.2647 13.4716L13.4717 20.2646C13.0589 20.6773 12.4991 20.9091 11.9154 20.9091C11.3317 20.9091 10.7719 20.6773 10.3591 20.2646L1.55414 11.4597C1.1413 11.0469 0.909304 10.4871 0.90918 9.90339Z" stroke="#959595" stroke-opacity="0.86" stroke-width="1.81818" stroke-linecap="round" stroke-linejoin="round"/>
<circle cx="5.58624" cy="5.58624" r="1.92609" stroke="#959595" stroke-opacity="0.86" stroke-width="1.81818"/>
</svg>
